<mxfile host="app.diagrams.net" modified="2023-04-26T16:24:42.183Z" agent="Mozilla/5.0 (X11; Linux x86_64) AppleWebKit/537.36 (KHTML, like Gecko) Chrome/111.0.0.0 Safari/537.36" version="21.1.4" etag="g6tP83A95MZ2xGnIxteZ" type="github">
  <diagram name="Page-1" id="pxmmMevhe94deDSN4gBW">
    <mxGraphModel>
      <root>
        <mxCell id="0" />
        <mxCell id="1" parent="0" />
      </root>
    </mxGraphModel>
  </diagram>
</mxfile>
